<?xml version="1.0" encoding="utf-8"?>
<!-- Generator: Adobe Illustrator 25.4.1, SVG Export Plug-In . SVG Version: 6.00 Build 0)  -->
<svg version="1.1" xmlns="http://www.w3.org/2000/svg" xmlns:xlink="http://www.w3.org/1999/xlink" x="0px" y="0px"
	 viewBox="0 0 1920 1080" style="enable-background:new 0 0 1920 1080;" xml:space="preserve">
<style type="text/css">
	.st0{display:none;}
	.st1{display:inline;}
	.st2{fill:#00D639;}
</style>
<g id="Background" class="st0">
	<rect x="-0.63" y="1.59" class="st1" width="1920" height="1080"/>
</g>
<g id="Logo_x2C__16:9">
	<g>
		<path class="st2" d="M660.87,324c48.05,0,87.12,33.23,88.02,79.48c0.45,13.02-8.98,20.21-19.31,20.21
			c-9.88,0-18.41-7.18-18.86-19.31c-0.45-26.05-22.45-45.36-50.3-45.36c-26.05,0-45.8,18.41-45.8,43.56
			c0,27.39,18.41,39.52,56.58,53.44c40.86,14.82,78.14,32.33,78.14,84.42c0,45.36-35.48,81.73-84.87,81.73
			c-48.5,0-88.47-34.13-88.47-80.38c0-28.74,13.92-48.95,27.39-48.95c11.68,0,18.86,7.63,18.86,17.96c0,8.98-7.63,13.02-7.63,29.19
			c0,28.74,23.35,47.15,49.85,47.15c27.84,0,46.25-19.31,46.25-42.66c0-28.74-18.41-40.86-56.58-54.34
			C611.48,474.89,576,456.47,576,405.73C576,359.93,612.82,324,660.87,324L660.87,324z"/>
		<path class="st2" d="M856.85,622.18c-48.5,0-88.91-39.07-88.91-88.47c0-51.19,40.86-89.36,90.26-89.36
			c52.99,0,90.26,39.52,90.26,93.41v65.56c0,11.23-8.98,18.86-19.31,18.86c-10.78,0-19.76-7.63-19.76-18.86V539.1
			c0-35.48-20.21-59.73-52.09-59.73c-28.29,0-50.74,23.8-50.74,54.34c0,28.29,22,52.54,49.85,52.54c10.33,0,14.82-2.69,21.11-2.69
			c8.53,0,17.51,7.18,17.51,17.51C895.02,614.99,878.4,622.18,856.85,622.18L856.85,622.18z"/>
		<path class="st2" d="M1059.11,756c-50.3,0-92.06-35.93-92.06-82.63c0-15.72,8.98-22.9,19.31-22.9c10.33,0,18.86,6.74,19.31,19.76
			c0.45,29.19,23.8,50.74,52.99,50.74c30.99,0,51.19-19.76,51.19-45.36c0-29.19-22.45-41.31-60.62-53.44
			c-44.46-14.37-82.18-34.13-82.18-88.91c0-50.3,38.62-88.91,88.91-88.91c50.74,0,92.51,36.82,92.51,85.32
			c0,29.64-12.12,52.54-28.74,52.54c-11.23,0-18.86-8.08-18.86-17.96c0-10.33,8.98-14.82,8.98-33.23
			c0-30.99-24.25-51.64-53.44-51.64c-28.29,0-50.74,21.56-50.74,49.85c0,31.88,22.9,45.36,60.62,57.93
			c43.56,14.37,82.18,32.33,82.18,84.87C1148.47,719.18,1111.2,756,1059.11,756L1059.11,756z"/>
		<path class="st2" d="M1258.68,622.18c-50.3,0-91.61-39.52-91.61-88.91c0-49.4,39.97-88.91,89.36-88.91
			c49.85,0,87.57,34.58,87.57,78.59c0,17.06-12.12,27.39-31.88,27.39h-51.64c-10.33,0-17.96-7.18-17.96-16.62
			c0-8.98,7.63-16.17,17.96-16.17h38.62c3.59,0,6.29-1.8,6.29-5.39c0-13.02-16.62-33.23-47.6-33.23c-28.74,0-52.09,24.7-52.09,54.34
			c0,30.09,23.8,53.89,53.44,53.89c34.13,0,45.36-20.21,59.28-20.21c11.68,0,17.96,7.63,17.96,16.17c0,8.08-5.39,15.27-18.86,23.8
			C1304.03,615.44,1283.83,622.18,1258.68,622.18L1258.68,622.18z"/>
	</g>
</g>
</svg>
